<svg xmlns="http://www.w3.org/2000/svg" style="display:none">

  <!-- N (0° + 180 = 180°) -->
  <symbol id="wr-icon-wind-direction--N" viewBox="0 0 32 32">
    <g fill="#000" stroke="none" transform="translate(16,16) rotate(180) translate(-16,-16)">
      <path d="M16.8 6.6v-3.6l2.1 2.1 1.1-1.1-4-4-4 4 1.1 1.1 2.1-2.1v3.6"/>
    </g>
    <circle fill="none" stroke="#000" stroke-width="1" cx="16" cy="16" r="9.5"/>
  </symbol>

  <!-- NNE (22.5° + 180 = 202.5°) -->
  <symbol id="wr-icon-wind-direction--NNE" viewBox="0 0 32 32">
    <g fill="#000" stroke="none" transform="translate(16,16) rotate(202.5) translate(-16,-16)">
      <path d="M16.8 6.6v-3.6l2.1 2.1 1.1-1.1-4-4-4 4 1.1 1.1 2.1-2.1v3.6"/>
    </g>
    <circle fill="none" stroke="#000" stroke-width="1" cx="16" cy="16" r="9.5"/>
  </symbol>

  <!-- NE (45° + 180 = 225°) -->
  <symbol id="wr-icon-wind-direction--NE" viewBox="0 0 32 32">
    <g fill="#000" stroke="none" transform="translate(16,16) rotate(225) translate(-16,-16)">
      <path d="M16.8 6.6v-3.6l2.1 2.1 1.1-1.1-4-4-4 4 1.1 1.1 2.1-2.1v3.6"/>
    </g>
    <circle fill="none" stroke="#000" stroke-width="1" cx="16" cy="16" r="9.5"/>
  </symbol>

  <!-- ENE (67.5° + 180 = 247.5°) -->
  <symbol id="wr-icon-wind-direction--ENE" viewBox="0 0 32 32">
    <g fill="#000" stroke="none" transform="translate(16,16) rotate(247.5) translate(-16,-16)">
      <path d="M16.8 6.6v-3.6l2.1 2.1 1.1-1.1-4-4-4 4 1.1 1.1 2.1-2.1v3.6"/>
    </g>
    <circle fill="none" stroke="#000" stroke-width="1" cx="16" cy="16" r="9.5"/>
  </symbol>

  <!-- E (90° + 180 = 270°) -->
  <symbol id="wr-icon-wind-direction--E" viewBox="0 0 32 32">
    <g fill="#000" stroke="none" transform="translate(16,16) rotate(270) translate(-16,-16)">
      <path d="M16.8 6.6v-3.6l2.1 2.1 1.1-1.1-4-4-4 4 1.1 1.1 2.1-2.1v3.6"/>
    </g>
    <circle fill="none" stroke="#000" stroke-width="1" cx="16" cy="16" r="9.5"/>
  </symbol>

  <!-- ESE (112.5° + 180 = 292.5°) -->
  <symbol id="wr-icon-wind-direction--ESE" viewBox="0 0 32 32">
    <g fill="#000" stroke="none" transform="translate(16,16) rotate(292.5) translate(-16,-16)">
      <path d="M16.8 6.6v-3.6l2.1 2.1 1.1-1.1-4-4-4 4 1.1 1.1 2.1-2.1v3.6"/>
    </g>
    <circle fill="none" stroke="#000" stroke-width="1" cx="16" cy="16" r="9.5"/>
  </symbol>

  <!-- SE (135° + 180 = 315°) -->
  <symbol id="wr-icon-wind-direction--SE" viewBox="0 0 32 32">
    <g fill="#000" stroke="none" transform="translate(16,16) rotate(315) translate(-16,-16)">
      <path d="M16.8 6.6v-3.6l2.1 2.1 1.1-1.1-4-4-4 4 1.1 1.1 2.1-2.1v3.6"/>
    </g>
    <circle fill="none" stroke="#000" stroke-width="1" cx="16" cy="16" r="9.5"/>
  </symbol>

  <!-- SSE (157.5° + 180 = 337.5°) -->
  <symbol id="wr-icon-wind-direction--SSE" viewBox="0 0 32 32">
    <g fill="#000" stroke="none" transform="translate(16,16) rotate(337.5) translate(-16,-16)">
      <path d="M16.8 6.6v-3.6l2.1 2.1 1.1-1.1-4-4-4 4 1.1 1.1 2.1-2.1v3.6"/>
    </g>
    <circle fill="none" stroke="#000" stroke-width="1" cx="16" cy="16" r="9.5"/>
  </symbol>

  <!-- S (180° + 180 = 360° → 0°) -->
  <symbol id="wr-icon-wind-direction--S" viewBox="0 0 32 32">
    <g fill="#000" stroke="none" transform="translate(16,16) rotate(0) translate(-16,-16)">
      <path d="M16.8 6.6v-3.6l2.1 2.1 1.1-1.1-4-4-4 4 1.1 1.1 2.1-2.1v3.6"/>
    </g>
    <circle fill="none" stroke="#000" stroke-width="1" cx="16" cy="16" r="9.5"/>
  </symbol>

  <!-- SSW (202.5° + 180 = 382.5° → 22.5°) -->
  <symbol id="wr-icon-wind-direction--SSW" viewBox="0 0 32 32">
    <g fill="#000" stroke="none" transform="translate(16,16) rotate(22.5) translate(-16,-16)">
      <path d="M16.8 6.6v-3.6l2.1 2.1 1.1-1.1-4-4-4 4 1.1 1.1 2.1-2.1v3.6"/>
    </g>
    <circle fill="none" stroke="#000" stroke-width="1" cx="16" cy="16" r="9.5"/>
  </symbol>

  <!-- SW (225° + 180 = 405° → 45°) -->
  <symbol id="wr-icon-wind-direction--SW" viewBox="0 0 32 32">
    <g fill="#000" stroke="none" transform="translate(16,16) rotate(45) translate(-16,-16)">
      <path d="M16.8 6.6v-3.6l2.1 2.1 1.1-1.1-4-4-4 4 1.1 1.1 2.1-2.1v3.6"/>
    </g>
    <circle fill="none" stroke="#000" stroke-width="1" cx="16" cy="16" r="9.5"/>
  </symbol>

  <!-- WSW (247.5° + 180 = 427.5° → 67.5°) -->
  <symbol id="wr-icon-wind-direction--WSW" viewBox="0 0 32 32">
    <g fill="#000" stroke="none" transform="translate(16,16) rotate(67.5) translate(-16,-16)">
      <path d="M16.8 6.6v-3.6l2.1 2.1 1.1-1.1-4-4-4 4 1.1 1.1 2.1-2.1v3.6"/>
    </g>
    <circle fill="none" stroke="#000" stroke-width="1" cx="16" cy="16" r="9.5"/>
  </symbol>

  <!-- W (270° + 180 = 450° → 90°) -->
  <symbol id="wr-icon-wind-direction--W" viewBox="0 0 32 32">
    <g fill="#000" stroke="none" transform="translate(16,16) rotate(90) translate(-16,-16)">
      <path d="M16.8 6.6v-3.6l2.1 2.1 1.1-1.1-4-4-4 4 1.1 1.1 2.1-2.1v3.6"/>
    </g>
    <circle fill="none" stroke="#000" stroke-width="1" cx="16" cy="16" r="9.5"/>
  </symbol>

  <!-- WNW (292.5° + 180 = 472.5° → 112.5°) -->
  <symbol id="wr-icon-wind-direction--WNW" viewBox="0 0 32 32">
    <g fill="#000" stroke="none" transform="translate(16,16) rotate(112.5) translate(-16,-16)">
      <path d="M16.8 6.6v-3.6l2.1 2.1 1.1-1.1-4-4-4 4 1.1 1.1 2.1-2.1v3.6"/>
    </g>
    <circle fill="none" stroke="#000" stroke-width="1" cx="16" cy="16" r="9.5"/>
  </symbol>

  <!-- NW (315° + 180 = 495° → 135°) -->
  <symbol id="wr-icon-wind-direction--NW" viewBox="0 0 32 32">
    <g fill="#000" stroke="none" transform="translate(16,16) rotate(135) translate(-16,-16)">
      <path d="M16.8 6.6v-3.6l2.1 2.1 1.1-1.1-4-4-4 4 1.1 1.1 2.1-2.1v3.6"/>
    </g>
    <circle fill="none" stroke="#000" stroke-width="1" cx="16" cy="16" r="9.5"/>
  </symbol>

  <!-- NNW (337.5° + 180 = 517.5° → 157.5°) -->
  <symbol id="wr-icon-wind-direction--NNW" viewBox="0 0 32 32">
    <g fill="#000" stroke="none" transform="translate(16,16) rotate(157.5) translate(-16,-16)">
      <path d="M16.8 6.6v-3.6l2.1 2.1 1.1-1.1-4-4-4 4 1.1 1.1 2.1-2.1v3.6"/>
    </g>
    <circle fill="none" stroke="#000" stroke-width="1" cx="16" cy="16" r="9.5"/>
  </symbol>

</svg>